<svg id="Layer_1" data-name="Layer 1" xmlns="http://www.w3.org/2000/svg" viewBox="0 0 175 51" width="175" height="51"><defs><style>.cls-1{fill:#000;}</style></defs><title>deploy-logo</title><path class="cls-1" d="M32.94,40.65H26.16V36.33C24.86,38.57,22,41.58,16,41.58,6.81,41.58.9,34.36.9,25.61c0-9.75,6.88-15.93,15-15.93,5.7,0,8.89,3.07,10,4.82V.16h7.1ZM8,25.61a8.91,8.91,0,0,0,9.11,9.24,9.27,9.27,0,0,0,6.61-2.73,8.88,8.88,0,0,0,2.55-6.68A8.93,8.93,0,0,0,23.62,19a9,9,0,0,0-6.46-2.62A8.93,8.93,0,0,0,8,25.55Z" transform="translate(-0.9 -0.16)"/><path class="cls-1" d="M42.59,28c.32,4.82,4.55,7.5,8.62,7.45a7.67,7.67,0,0,0,7.16-4.05h7.32a17,17,0,0,1-6,7.55,14.66,14.66,0,0,1-8.51,2.62A15.73,15.73,0,0,1,35.43,25.71a15.79,15.79,0,0,1,15.62-16,15.12,15.12,0,0,1,11.11,4.6A16.3,16.3,0,0,1,66.55,28Zm17-5.47a8.21,8.21,0,0,0-8.46-6.78c-5.26,0-8.13,3.83-8.4,6.78Z" transform="translate(-0.9 -0.16)"/><path class="cls-1" d="M69.8,10.61h6.67V15A12.39,12.39,0,0,1,87,9.68c10.41,0,14.8,8.92,14.8,16.2,0,8.54-6,15.7-14.75,15.7-5.8,0-8.94-3-10.13-4.92v14.5H69.8Zm24.89,15a9,9,0,0,0-9.11-9.25,8.81,8.81,0,0,0-6.45,2.73,9.56,9.56,0,0,0-2.55,6.62,9.22,9.22,0,0,0,2.6,6.52,9.07,9.07,0,0,0,15.51-6.57Z" transform="translate(-0.9 -0.16)"/><path class="cls-1" d="M105.15.16h7.1V40.65h-7.1Z" transform="translate(-0.9 -0.16)"/><path class="cls-1" d="M115.5,25.55c0-7.66,5.59-15.81,15.94-15.81s15.94,8.15,15.94,15.87-5.58,15.92-15.94,15.92S115.5,33.38,115.5,25.61Zm7.11.11a8.82,8.82,0,1,0,17.62-.05,8.82,8.82,0,1,0-17.62,0Z" transform="translate(-0.9 -0.16)"/><path class="cls-1" d="M157.52,39.5,146.3,10.61h7.59l7.26,20,7.16-20h7.59L160.23,51.16h-7.59Z" transform="translate(-0.9 -0.16)"/></svg>