<?xml version="1.0" standalone="no"?>
<!DOCTYPE svg PUBLIC "-//W3C//DTD SVG 20010904//EN"
 "http://www.w3.org/TR/2001/REC-SVG-20010904/DTD/svg10.dtd">
<svg version="1.0" xmlns="http://www.w3.org/2000/svg"
 width="729.000000pt" height="729.000000pt" viewBox="0 0 729.000000 729.000000"
 preserveAspectRatio="xMidYMid meet">
<metadata>
Created by potrace 1.11, written by Peter Selinger 2001-2013
</metadata>
<g transform="translate(0.000000,729.000000) scale(0.100000,-0.100000)"
fill="#000000" stroke="none">
<path d="M1040 4415 l0 -295 -42 46 c-85 92 -226 147 -378 146 -298 -1 -537
-199 -604 -497 -20 -92 -16 -286 8 -370 54 -183 173 -330 326 -402 232 -110
505 -74 651 84 l49 55 0 -84 0 -83 122 2 c68 1 132 2 144 2 l20 1 1 845 1 845
-149 0 -149 0 0 -295z m-208 -417 c134 -62 217 -187 222 -335 4 -113 -30 -205
-101 -280 -124 -131 -328 -157 -482 -63 -170 105 -224 336 -123 523 35 66 109
129 184 160 88 36 216 33 300 -5z"/>
<path d="M4344 3864 l1 -846 110 0 c61 0 127 1 148 1 l37 1 0 845 0 845 -149
0 -148 0 1 -846z"/>
<path d="M2035 4309 c-334 -33 -594 -314 -597 -644 -2 -254 100 -448 303 -581
102 -67 202 -97 334 -100 129 -4 193 9 305 64 99 48 228 175 283 278 20 40 37
74 37 76 0 3 -68 5 -152 5 l-152 0 -28 -38 c-33 -46 -80 -82 -141 -109 -55
-25 -170 -29 -239 -9 -123 36 -226 144 -244 256 l-6 38 497 0 c273 0 498 2
500 6 2 3 5 39 6 80 12 398 -320 717 -706 678z m207 -281 c31 -14 74 -42 96
-63 39 -34 102 -141 102 -172 0 -14 -17 -14 -425 -14 -304 0 -275 -4 -265 30
34 118 133 211 257 240 69 16 175 6 235 -21z"/>
<path d="M3510 4309 c-63 -7 -118 -23 -174 -51 -49 -25 -56 -30 -128 -99 l-58
-56 0 86 0 86 -140 0 -140 0 0 -847 0 -848 149 0 149 0 0 258 c0 141 1 273 1
294 l1 36 54 -52 c124 -122 326 -166 526 -115 295 75 493 393 448 719 -18 135
-32 180 -85 282 -114 219 -346 337 -603 307z m211 -332 c55 -33 77 -53 111
-99 93 -123 97 -315 10 -447 -86 -130 -253 -198 -397 -160 -242 62 -361 328
-248 552 99 196 338 266 524 154z"/>
<path d="M5262 4290 c-383 -91 -590 -520 -436 -907 104 -262 359 -417 655
-400 245 15 444 143 547 352 16 33 37 83 45 110 77 244 -2 536 -191 705 -153
137 -398 192 -620 140z m329 -294 c160 -79 237 -242 204 -436 -17 -102 -99
-212 -194 -259 -99 -50 -213 -50 -318 -1 -145 67 -223 209 -210 383 12 157
103 276 250 329 75 27 194 20 268 -16z"/>
<path d="M6060 4268 c0 -6 166 -439 287 -748 25 -63 74 -191 110 -284 l65
-170 -23 -55 c-12 -31 -30 -74 -40 -96 -10 -22 -36 -85 -59 -140 -23 -55 -50
-120 -60 -145 l-19 -45 156 -3 c86 -1 159 1 163 5 4 5 30 71 60 148 29 77 76
201 105 275 29 74 90 232 135 350 88 231 88 230 210 545 68 175 140 364 140
369 0 1 -71 1 -157 1 l-158 0 -22 -55 c-12 -30 -40 -109 -63 -175 -22 -66 -47
-136 -55 -155 -8 -19 -46 -125 -85 -234 -39 -110 -72 -201 -73 -203 -2 -2 -71
183 -153 409 l-150 413 -157 0 c-86 0 -157 -3 -157 -7z"/>
</g>
</svg>
