<svg id="Layer_1" data-name="Layer 1" xmlns="http://www.w3.org/2000/svg" viewBox="0 0 109.45 101.9"><title>blockchain</title><path d="M51.55,25.59A25.5,25.5,0,1,0,77,51.08,25.53,25.53,0,0,0,51.55,25.59Zm0,48.09a22.6,22.6,0,1,1,22.6-22.6,22.63,22.63,0,0,1-22.6,22.6Z" transform="translate(0 -0.41)"/><path d="M103.32,48a6.13,6.13,0,0,0-6,4.8H83.64c0-.56.09-1.11.09-1.68a32.06,32.06,0,0,0-1.61-10h8a6.14,6.14,0,1,0,0-2.66H81.28v.37A32.25,32.25,0,0,0,56.35,19.3V8.2H62a6.1,6.1,0,1,0-.16-2.66H55a1.34,1.34,0,0,0-1.33,1.34V19c-.71-.05-1.42-.11-2.14-.11a31.34,31.34,0,0,0-5.07.44V12.44a1.33,1.33,0,0,0-1.33-1.34H39.68a6.14,6.14,0,1,0,0,2.67h4.15v6.12A32.21,32.21,0,0,0,20.38,43.24H12.26v-3.8a6.13,6.13,0,1,0-2.66,0v5.13a1.34,1.34,0,0,0,1.33,1.33h8.9a31.82,31.82,0,0,0-.46,5.2,32.7,32.7,0,0,0,.29,4.1H12.11a6.13,6.13,0,1,0,0,2.66h8A32.25,32.25,0,0,0,41.18,81.52v13h-5.6a6.11,6.11,0,1,0,.16,2.65h6.77a1.33,1.33,0,0,0,1.33-1.33V82.28a31.63,31.63,0,0,0,7.71,1c.72,0,1.43-.07,2.14-.11V90a6.14,6.14,0,1,0,2.67,0V82.86a32.19,32.19,0,0,0,24.4-18.35h14v4.65a6.13,6.13,0,1,0,2.66,0v-6a1.33,1.33,0,0,0-1.33-1.33H81.83a31.46,31.46,0,0,0,1.57-6.43H97.34a6.13,6.13,0,1,0,6-7.47ZM96.1,36.29a3.48,3.48,0,1,1-3.48,3.48A3.48,3.48,0,0,1,96.1,36.29ZM67.83,3.07a3.48,3.48,0,1,1-3.48,3.48A3.48,3.48,0,0,1,67.83,3.07ZM33.7,15.91a3.48,3.48,0,1,1,3.48-3.47A3.48,3.48,0,0,1,33.7,15.91ZM7.46,33.45a3.48,3.48,0,1,1,3.47,3.48A3.47,3.47,0,0,1,7.46,33.45ZM6.13,60a3.48,3.48,0,1,1,3.48-3.48A3.48,3.48,0,0,1,6.13,60ZM29.7,99.65a3.48,3.48,0,1,1,3.48-3.48A3.49,3.49,0,0,1,29.7,99.65ZM58.5,96A3.48,3.48,0,1,1,55,92.54,3.47,3.47,0,0,1,58.5,96ZM99.57,75.13a3.48,3.48,0,1,1-3.47-3.47A3.47,3.47,0,0,1,99.57,75.13Zm-48,5.23A29.28,29.28,0,1,1,80.82,51.09,29.3,29.3,0,0,1,51.55,80.36Zm51.77-22.79a3.48,3.48,0,1,1,3.47-3.47A3.47,3.47,0,0,1,103.32,57.57Z" transform="translate(0 -0.41)"/><path d="M60.18,58.3A1.68,1.68,0,0,0,59.81,57a1.92,1.92,0,0,0-1.27-.71,1.61,1.61,0,0,0-1.31.34A8.74,8.74,0,0,1,52,58.28,7.35,7.35,0,0,1,46.73,56a7.32,7.32,0,0,1,0-10.67A7.39,7.39,0,0,1,52,43.11a8.65,8.65,0,0,1,5.19,1.67,1.66,1.66,0,0,0,1.36.41,1.9,1.9,0,0,0,1.25-.71,1.75,1.75,0,0,0,.36-1.39,1.78,1.78,0,0,0-.7-1.26,11.9,11.9,0,0,0-4.72-2.2V36.35a1.21,1.21,0,0,0-2.42,0v3h-.1a12.22,12.22,0,0,0-2.73.36V36.35a1.21,1.21,0,1,0-2.41,0v4.23a11.88,11.88,0,0,0-3,2.1,10.69,10.69,0,0,0-3.41,8,10.88,10.88,0,0,0,3.41,8,11.84,11.84,0,0,0,3,2.11v4.1a1.21,1.21,0,1,0,2.42,0V61.68a11.53,11.53,0,0,0,2.73.35h.1v2.87a1.21,1.21,0,1,0,2.41,0V61.72a12.8,12.8,0,0,0,4.74-2.12,2.13,2.13,0,0,0,.69-1.3Z" transform="translate(0 -0.41)"/></svg>