<svg id="Layer_1" data-name="Layer 1" xmlns="http://www.w3.org/2000/svg" viewBox="0 0 231.27 262.95"><defs><style>.cls-1{fill:#95bf47;}.cls-2{fill:#5e8e3e;}.cls-3{fill:#fff;}</style></defs><title>shopify</title><path class="cls-1" d="M158.78-36.89A2.47,2.47,0,0,0,156.45-39c-1,0-21.12-1.48-21.12-1.48S121.39-54.42,119.7-55.9c-1.48-1.48-4.64-1.05-5.7-.63-.21,0-3.17.84-7.81,2.32-4.65-13.51-12.89-26-27.46-26H77.46C73.24-85.68,68.17-88,63.73-88c-34,0-50.26,42.45-55.33,64-13.1,4-22.6,7-23.66,7.39-7.39,2.32-7.6,2.53-8.44,9.5-.85,5.07-20.07,154-20.07,154l150,28.09,81.31-17.53S159-35.41,158.78-36.89Zm-61-14.78c-3.8,1.26-8,2.53-12.67,4v-2.75a66.85,66.85,0,0,0-3-20.48C89.71-70,94.57-61.6,97.74-51.67ZM72.82-69.41c2.11,5.28,3.38,12.67,3.38,22.81v1.47C68-42.59,58.88-39.85,50-37.1,55.07-56.32,64.58-65.82,72.82-69.41ZM62.68-78.92a7.4,7.4,0,0,1,4.43,1.48c-10.77,5.07-22.6,17.95-27.45,43.72C32.48-31.4,25.51-29.29,19-27.38,24.66-47,38.39-78.92,62.68-78.92Z" transform="translate(43.77 88)"/><path class="cls-2" d="M156.45-39c-1,0-21.12-1.48-21.12-1.48S121.39-54.42,119.7-55.9a4,4,0,0,0-2.11-1.05L106.19,175l81.31-17.53S159-35.41,158.78-36.68A2.91,2.91,0,0,0,156.45-39Z" transform="translate(43.77 88)"/><path class="cls-3" d="M78.52,6,68.59,35.77a46.71,46.71,0,0,0-19.43-4.65c-15.84,0-16.47,9.93-16.47,12.46,0,13.52,35.48,18.8,35.48,50.69,0,25.13-15.84,41.18-37.38,41.18-25.77,0-38.87-16-38.87-16l7-22.81s13.52,11.62,24.93,11.62A10.18,10.18,0,0,0,34.38,98.07c0-17.74-29.15-18.58-29.15-47.73C5.23,25.84,22.76,2,58.45,2,71.76,2,78.52,6,78.52,6Z" transform="translate(43.77 88)"/></svg>