<svg id="WordPress" xmlns="http://www.w3.org/2000/svg" viewBox="0 0 664.93 664.94"><defs><style>.cls-1{fill:#32373c;}</style></defs><title>wordpress</title><g id="Logotype"><g id="W_Mark" data-name="W Mark"><path class="cls-1" d="M332.47,20A312,312,0,1,1,210.83,44.5,310.9,310.9,0,0,1,332.47,20m0-19.95C148.85.05,0,148.85,0,332.47S148.85,664.94,332.47,664.94,664.93,516.05,664.93,332.47,516.08.05,332.47.05Z" transform="translate(0 0)"/><path class="cls-1" d="M55.41,332.46c0,109.66,63.72,204.43,156.15,249.34L79.4,219.71A276.06,276.06,0,0,0,55.41,332.46Zm464.09-14c0-34.25-12.3-58-22.84-76.41-14-22.83-27.21-42.15-27.21-65,0-25.46,19.31-49.17,46.52-49.17,1.23,0,2.4.15,3.59.23A277.05,277.05,0,0,0,101,180.29c6.5.2,12.63.33,17.83.33,29,0,73.84-3.52,73.84-3.52,14.93-.87,16.69,21.07,1.77,22.83,0,0-15,1.76-31.7,2.64L263.6,502.67l60.64-181.84L281.08,202.57c-14.93-.88-29.06-2.64-29.06-2.64-14.93-.88-13.18-23.7,1.76-22.83,0,0,45.74,3.52,73,3.52,29,0,73.84-3.52,73.84-3.52,14.94-.87,16.7,21.07,1.77,22.83,0,0-15,1.76-31.71,2.64l100.1,297.81,28.58-90.56c12.7-39.58,20.14-67.63,20.14-91.33Zm-182.17,38.2L254.19,598.24a277.18,277.18,0,0,0,170.29-4.42,23.94,23.94,0,0,1-2-3.82ZM575.59,199.55a212.25,212.25,0,0,1,1.86,28.5c0,28.1-5.26,59.7-21.07,99.23L471.76,571.93c82.37-48,137.76-137.26,137.76-239.47A275.77,275.77,0,0,0,575.59,199.55Z" transform="translate(0 0)"/></g></g></svg>